<svg width="1024" height="1024" viewBox="0 0 1024 1024" fill="none" xmlns="http://www.w3.org/2000/svg">
<path d="M238.92 507.58L269.63 472.8L188.48 369.27C188.48 369.27 165.09 339.78 191.73 315.98C191.73 315.98 222.24 296.66 244.41 325.95C244.41 325.95 354.24 464.46 358.1 467.51L398.78 513.27L431.32 477.07C431.32 477.07 286.1 303.58 279.39 292.39C279.39 292.39 235.86 236.66 173.63 270.02C173.63 270.02 118.51 296.05 132.75 363.17C132.75 363.17 141.29 387.17 145.36 393.27L238.92 507.58Z" fill="white" stroke="white" stroke-miterlimit="10"/>
<path d="M374.98 381.88L451.05 285.88C451.05 285.88 483.19 251.71 526.71 261.27C526.71 261.27 559.25 264.12 583.05 297.68L649.97 381.88L618.85 419.3L543.19 325.74C543.19 325.74 523.05 297.88 489.7 316.38L406.72 419.3L374.98 381.88Z" fill="white" stroke="white" stroke-miterlimit="10"/>
<path d="M593.22 477.07L752.88 285.07C752.88 285.07 791.73 243.38 846.03 266.97C900.34 290.56 894.64 342.43 894.64 342.43C894.64 342.43 903.79 368.67 860.88 419.31L786.03 509.82L754.91 473.41L840.33 365.41C840.33 365.41 863.11 332.87 824.87 310.7C824.87 310.7 799.04 298.84 769.95 339.45C769.95 339.45 630.63 514.09 625.34 513.89L593.22 477.07Z" fill="white" stroke="white" stroke-miterlimit="10"/>
<path d="M707.53 447.58L675.6 486.43C675.6 486.43 753.09 572.67 762.24 590.57C762.24 590.57 780.75 620.26 744.34 663.38C744.34 663.38 704.47 721.14 666.85 711.18C666.85 711.18 660.14 719.52 602.38 657.69L490.51 540.12L458.58 576.12L588.55 714.02C588.55 714.02 632.69 767.92 690.86 761.41C690.86 761.41 756.35 757.55 813.1 642.02C813.1 642.02 836.9 589.14 778.73 530.16L707.53 447.58Z" fill="white" stroke="white" stroke-miterlimit="10"/>
<path d="M316.41 447.58L232 545.2C232 545.2 188.68 598.89 216.34 653.81C216.34 653.81 260.68 730.28 296.88 746.76C296.88 746.76 343.86 787.44 410.37 737.61L499.05 647.71L465.49 612.12L382.3 697.95C382.3 697.95 340.2 742.29 286.91 670.9C286.91 670.9 254.57 637.14 257.22 602.56C257.22 602.56 261.69 587.1 269.83 577.34L347.93 485.81L316.41 447.58Z" fill="white" stroke="white" stroke-miterlimit="10"/>
<path d="M398.78 513.27L465.63 583.6L502.21 552.42L426.55 471.36L398.78 513.27Z" fill="white" stroke="white" stroke-miterlimit="10"/>
<path d="M605.13 462.75L527.01 552.69L560.34 589.75L644.43 493.48L605.13 462.75Z" fill="white" stroke="white" stroke-miterlimit="10"/>
</svg>
